<?xml version="1.0" encoding="UTF-8"?>
<svg width="32" height="32" viewBox="0 0 32 32" fill="none" xmlns="http://www.w3.org/2000/svg">
  <path d="M16 2C8.268 2 2 8.268 2 16s6.268 14 14 14 14-6.268 14-14S23.732 2 16 2z" fill="#E6F7FF"/>
  <path d="M22 14c0 3.314-2.686 6-6 6s-6-2.686-6-6 2.686-6 6-6 6 2.686 6 6z" fill="#FF8E53"/>
  <path d="M14 13a1 1 0 100-2 1 1 0 000 2zM18 13a1 1 0 100-2 1 1 0 000 2z" fill="#FFE5D9"/>
  <path d="M16 15l-2 2h4l-2-2z" fill="#FF6B6B"/>
  <path d="M24 18s-2 4-8 4-8-4-8-4 2 8 8 8 8-8 8-8z" fill="#FF8E53"/>
</svg> 