<svg xmlns="http://www.w3.org/2000/svg" viewBox="0 0 24 24">
  <path fill="#EA4335" d="M12 0C8.21 0 4.831 1.757 2.632 4.501l3.953 6.848A5.454 5.454 0 0 1 12 6.545h10.691A12 12 0 0 0 12 0z"/>
  <path fill="#4285F4" d="M12 17.455a5.454 5.454 0 0 1-4.726-2.733L2.632 4.501C.815 6.791 0 9.569 0 12.545c0 6.627 5.373 12 12 12 3.059 0 5.842-1.154 7.961-3.039l-3.968-6.873A5.408 5.408 0 0 1 12 17.455z"/>
  <path fill="#FBBC05" d="M23.346 6.545H12a5.455 5.455 0 0 1 4.726 8.188l3.968 6.873A11.953 11.953 0 0 0 24 12.545c0-2.177-.478-4.235-1.327-6.089a.863.863 0 0 1 .673.089z"/>
  <circle fill="#FFF" cx="12" cy="12" r="3.5"/>
</svg> 