<svg xmlns="http://www.w3.org/2000/svg" viewBox="0 0 24 24">
  <path fill="#12B7F5" d="M21.395,15.035c-0.388-0.396-0.824-0.687-1.257-0.961c0.326-0.413,0.603-0.866,0.782-1.359 c0.41-1.137,0.409-2.372-0.002-3.508c-0.417-1.147-1.232-2.098-2.29-2.679c-0.279-0.153-0.574-0.271-0.879-0.351 c-0.076-0.02-0.154-0.037-0.232-0.052c-0.174-0.034-0.351-0.056-0.529-0.067c-0.018-0.001-0.035-0.004-0.053-0.005 c-0.046-0.003-0.092-0.003-0.138-0.004c-0.044-0.001-0.088-0.003-0.132-0.002c-0.046,0.001-0.092,0.003-0.138,0.006 c-0.018,0.001-0.035,0.001-0.053,0.003c-0.178,0.013-0.354,0.037-0.527,0.073c-0.077,0.016-0.153,0.034-0.229,0.055 c-0.303,0.083-0.595,0.204-0.871,0.359c-1.058,0.581-1.873,1.532-2.29,2.679c-0.411,1.136-0.412,2.371-0.002,3.508 c0.179,0.493,0.456,0.946,0.782,1.359c-0.433,0.274-0.869,0.565-1.257,0.961c-0.371,0.379-0.619,0.838-0.738,1.337 c-0.131,0.547-0.096,1.119,0.098,1.646c0.244,0.663,0.727,1.195,1.366,1.504c0.607,0.294,1.291,0.371,1.947,0.219 c0.628-0.146,1.176-0.505,1.559-1.019c0.338-0.455,0.523-0.999,0.523-1.559c0-0.087-0.004-0.174-0.013-0.26 c-0.043-0.432-0.191-0.844-0.432-1.208c-0.104-0.157-0.224-0.302-0.358-0.432c0.435-0.244,0.842-0.539,1.208-0.883 c0.366,0.344,0.773,0.639,1.208,0.883c-0.134,0.13-0.254,0.275-0.358,0.432c-0.241,0.364-0.389,0.776-0.432,1.208 c-0.009,0.086-0.013,0.173-0.013,0.26c0,0.56,0.185,1.104,0.523,1.559c0.383,0.514,0.931,0.873,1.559,1.019 c0.656,0.152,1.34,0.075,1.947-0.219c0.639-0.309,1.122-0.841,1.366-1.504c0.194-0.527,0.229-1.099,0.098-1.646 C22.014,15.873,21.766,15.414,21.395,15.035z"/>
</svg> 